<?xml version="1.0" standalone="no"?>
<!DOCTYPE svg PUBLIC "-//W3C//DTD SVG 20010904//EN"
 "http://www.w3.org/TR/2001/REC-SVG-20010904/DTD/svg10.dtd">
<svg version="1.0" xmlns="http://www.w3.org/2000/svg"
 width="64.000000pt" height="64.000000pt" viewBox="0 0 64.000000 64.000000"
 preserveAspectRatio="xMidYMid meet">

<g transform="translate(0.000000,64.000000) scale(0.100000,-0.100000)"
fill="#000000" stroke="none">
<path d="M375 527 c-104 -50 -307 -165 -329 -186 -13 -14 -16 -26 -11 -49 7
-32 12 -36 305 -201 76 -43 96 -46 134 -18 18 13 18 18 6 46 -8 21 -27 39 -54
53 -100 50 -266 142 -266 147 0 4 62 43 138 89 166 100 175 106 170 128 -5 28
-19 26 -93 -9z"/>
</g>
</svg>
