<?xml version="1.0" standalone="no"?>
<!DOCTYPE svg PUBLIC "-//W3C//DTD SVG 20010904//EN"
 "http://www.w3.org/TR/2001/REC-SVG-20010904/DTD/svg10.dtd">
<svg version="1.0" xmlns="http://www.w3.org/2000/svg"
 width="64.000000pt" height="64.000000pt" viewBox="0 0 64.000000 64.000000"
 preserveAspectRatio="xMidYMid meet">

<g transform="translate(0.000000,64.000000) scale(0.100000,-0.100000)"
fill="#000000" stroke="none">
<path d="M96 369 c-30 -24 -34 -59 -8 -82 24 -22 34 -21 66 4 32 25 33 49 3
77 -28 27 -28 27 -61 1z"/>
<path d="M286 368 c-22 -31 -20 -51 9 -78 23 -21 27 -22 51 -9 39 21 51 52 30
84 -21 33 -68 34 -90 3z"/>
<path d="M482 378 c-18 -18 -14 -62 8 -86 26 -27 40 -28 74 -1 30 23 33 45 10
77 -17 25 -71 31 -92 10z"/>
</g>
</svg>
